<svg width="72" height="72" viewBox="0 0 72 72" fill="currentColor" xmlns="http://www.w3.org/2000/svg">
<path fill-rule="evenodd" clip-rule="evenodd" d="M18.8568 36.831C21.4458 36.837 23.5428 38.904 23.5488 41.457C23.5488 44.007 21.4458 46.08 18.8568 46.08C16.2678 46.08 14.1648 44.007 14.1648 41.457C14.1648 38.898 16.2678 36.831 18.8568 36.831ZM54.7632 36.831C57.3522 36.837 59.4492 38.904 59.4552 41.457C59.4552 44.007 57.3552 46.08 54.7632 46.08C52.1712 46.08 50.0742 44.007 50.0742 41.457C50.0742 38.898 52.1712 36.831 54.7632 36.831ZM18.8568 39.102C17.5398 39.102 16.4688 40.158 16.4688 41.457C16.4688 42.753 17.5398 43.809 18.8568 43.809C20.1738 43.809 21.2418 42.753 21.2418 41.457C21.2418 40.158 20.1738 39.102 18.8568 39.102ZM54.7632 39.102C53.4462 39.102 52.3752 40.158 52.3752 41.457C52.3752 42.753 53.4462 43.809 54.7632 43.809C56.0772 43.809 57.1482 42.753 57.1482 41.457C57.1482 40.158 56.0772 39.102 54.7632 39.102ZM39.876 24C42.732 24 45.492 25.005 47.661 26.835L52.674 31.059L60.789 32.307C63.786 32.766 66 35.31 66 38.301V42.702H60.999C61.077 42.297 61.125 41.883 61.125 41.457C61.119 37.995 58.275 35.193 54.762 35.187C51.249 35.187 48.405 37.995 48.405 41.457C48.405 41.883 48.447 42.297 48.528 42.702H25.089C25.17 42.297 25.218 41.883 25.218 41.457C25.215 37.995 22.368 35.193 18.858 35.187C15.345 35.187 12.498 37.995 12.498 41.457C12.498 41.883 12.54 42.297 12.627 42.702H6V33.753C6 32.265 7.227 31.059 8.736 31.059H12.978L19.017 26.043C20.604 24.726 22.617 24 24.69 24H39.876ZM39.138 25.563L28.689 25.641V31.062L50.364 31.086L47.382 28.617C45.18 26.649 42.114 25.563 39.138 25.563ZM27.024 25.641H24.909C22.827 25.641 21.228 26.373 19.632 27.693L15.516 31.059H27.024V25.641Z" fill="#007B87"/>
</svg>
