<svg width="72" height="72" viewBox="0 0 72 72" fill="none" xmlns="http://www.w3.org/2000/svg">
<path fill-rule="evenodd" clip-rule="evenodd" d="M57.7167 33.6719C56.5943 33.7333 55.4898 33.8064 54.3016 33.783C55.1157 36.2732 56.7679 41.2126 55.6604 47.2744C54.4722 53.8068 56.9355 55.4786 53.4666 55.4786C50.1832 55.4786 49.9108 56.0106 49.9108 51.7726C49.9108 50.5421 45.7086 50.9776 44.0655 50.9776C43.7931 52.5705 44.8377 53.5993 36.1609 53.5116C27.4871 53.5993 28.1635 52.4974 27.8911 50.9074C26.242 50.9074 22.0428 50.4632 22.0428 51.7024C22.0428 55.9375 21.7734 55.4085 18.4841 55.4085C15.0121 55.4085 17.4814 53.725 16.2902 47.1985C15.2037 41.2302 16.793 36.3346 17.6221 33.8181C16.4578 33.8327 15.3803 33.7655 14.2818 33.6982C11.0913 33.5258 11.7288 28.7646 13.2792 28.7646C14.8176 28.7646 16.9846 28.6097 18.7774 29.0715C19.2233 27.2419 19.8189 25.117 20.5882 23.4686C22.8838 18.5057 29.0644 17.9943 35.7389 18C43.1676 18 48.4413 18.8711 51.3714 23.5416C52.3262 25.0673 52.9009 27.1688 53.275 29.0247C55.0588 28.5805 57.2048 28.7295 58.7223 28.7295C60.2697 28.7295 60.9102 33.4966 57.7167 33.6719ZM53.0715 40.6398C53.0715 38.3045 52.0419 36.3959 48.7406 36.3959C46.1905 36.3959 45.0591 38.5822 45.2477 40.8648C45.4333 43.2293 46.2803 44.5066 49.0219 44.5066C52.2274 44.5066 53.0715 42.8698 53.0715 40.6398ZM49.4978 28.3408C49.4978 26.3855 48.4712 24.1963 46.0289 23.1646C43.6255 22.165 40.7492 21.788 36.3045 21.788C31.7671 21.788 28.3491 21.8874 25.8978 23.0272C23.665 24.0561 22.5157 26.2832 22.4289 28.3408C22.4289 31.7751 23.7638 31.4769 35.7748 31.4769C47.4625 31.4769 49.4978 31.8423 49.4978 28.3408ZM22.4678 36.3404C19.9207 36.3404 18.7893 38.5266 18.9749 40.8064C19.1635 43.1826 20.0105 44.4569 22.7491 44.4569C25.9606 44.4569 26.8017 42.8143 26.8017 40.5696C26.8017 38.2431 25.7691 36.3404 22.4678 36.3404Z" fill="#0F68D8"/>
</svg>
