<svg width="24" height="24" viewBox="0 0 24 24" fill="currentColor" xmlns="http://www.w3.org/2000/svg">
<path fill-rule="evenodd" clip-rule="evenodd" d="M19.155 8.325L10.155 17.325C10.0459 17.4347 9.91618 17.5216 9.77329 17.5809C9.63039 17.6401 9.47717 17.6704 9.32249 17.67C9.16882 17.6711 9.01652 17.6411 8.87475 17.5818C8.73298 17.5225 8.60465 17.4351 8.49749 17.325L4.84499 13.7475C4.62519 13.5277 4.50171 13.2296 4.50171 12.9187C4.50171 12.6079 4.62519 12.3098 4.84499 12.09C5.06479 11.8702 5.3629 11.7467 5.67374 11.7467C5.98458 11.7467 6.28269 11.8702 6.50249 12.09L9.28499 14.88L17.4975 6.6675C17.7173 6.4477 18.0154 6.32422 18.3262 6.32422C18.6371 6.32422 18.9352 6.4477 19.155 6.6675C19.3748 6.8873 19.4983 7.18541 19.4983 7.49625C19.4983 7.80709 19.3748 8.1052 19.155 8.325Z" fill="white"/>
</svg>
